HIERARCHY
ROOT mixamorig:Hips
{
	OFFSET 0.000000 201.639420 0.000000
	CHANNELS 6 Xposition Yposition Zposition Xrotation Yrotation Zrotation
	JOINT mixamorig:Spine
	{
		OFFSET 0.006200 19.524994 -2.481800
		CHANNELS 3 Xrotation Yrotation Zrotation
		JOINT mixamorig:Spine1
		{
			OFFSET -0.000900 22.835007 -2.825400
			CHANNELS 3 Xrotation Yrotation Zrotation
			JOINT mixamorig:Spine2
			{
				OFFSET -0.020600 26.552490 -3.193300
				CHANNELS 3 Xrotation Yrotation Zrotation
				JOINT mixamorig:Neck
				{
					OFFSET -0.060000 30.701813 1.352200
					CHANNELS 3 Xrotation Yrotation Zrotation
					JOINT mixamorig:Head
					{
						OFFSET -0.087200 22.547607 3.670900
						CHANNELS 3 Xrotation Yrotation Zrotation
						JOINT mixamorig:HeadTop_End
						{
							OFFSET -0.830600 40.355194 7.893500
							CHANNELS 3 Xrotation Yrotation Zrotation
							End Site
							{
								OFFSET 0.000000 30.592346 0.000000
							}
						}
						JOINT mixamorig:RightEye
						{
							OFFSET -6.302100 18.118591 16.197100
							CHANNELS 3 Xrotation Yrotation Zrotation
							End Site
							{
								OFFSET 0.000000 30.592346 0.000000
							}
						}
						JOINT mixamorig:LeftEye
						{
							OFFSET 6.741500 18.382690 16.401899
							CHANNELS 3 Xrotation Yrotation Zrotation
							End Site
							{
								OFFSET 0.000000 30.592346 0.000000
							}
						}
					}
				}
				JOINT mixamorig:LeftShoulder
				{
					OFFSET 11.924900 18.230499 1.425400
					CHANNELS 3 Xrotation Yrotation Zrotation
					JOINT mixamorig:LeftArm
					{
						OFFSET 25.435989 -0.697632 -5.229300
						CHANNELS 3 Xrotation Yrotation Zrotation
						JOINT mixamorig:LeftForeArm
						{
							OFFSET 54.684776 0.000000 0.000000
							CHANNELS 3 Xrotation Yrotation Zrotation
							JOINT mixamorig:LeftHand
							{
								OFFSET 55.098175 0.000000 0.000000
								CHANNELS 3 Xrotation Yrotation Zrotation
								JOINT mixamorig:LeftHandMiddle1
								{
									OFFSET 23.369751 0.000000 0.000000
									CHANNELS 3 Xrotation Yrotation Zrotation
									JOINT mixamorig:LeftHandMiddle2
									{
										OFFSET 6.378677 0.000000 0.000000
										CHANNELS 3 Xrotation Yrotation Zrotation
										JOINT mixamorig:LeftHandMiddle3
										{
											OFFSET 6.148331 0.000000 0.000000
											CHANNELS 3 Xrotation Yrotation Zrotation
											JOINT mixamorig:LeftHandMiddle4
											{
												OFFSET 6.582504 0.000000 0.000000
												CHANNELS 3 Xrotation Yrotation Zrotation
												End Site
												{
													OFFSET -1.168900 6.395691 1.028606
												}
											}
										}
									}
								}
								JOINT mixamorig:LeftHandThumb1
								{
									OFFSET 7.235672 -3.848206 5.434273
									CHANNELS 3 Xrotation Yrotation Zrotation
									JOINT mixamorig:LeftHandThumb2
									{
										OFFSET 6.568451 -3.792297 3.792300
										CHANNELS 3 Xrotation Yrotation Zrotation
										JOINT mixamorig:LeftHandThumb3
										{
											OFFSET 6.063080 -3.500519 3.500518
											CHANNELS 3 Xrotation Yrotation Zrotation
											JOINT mixamorig:LeftHandThumb4
											{
												OFFSET 4.793182 -2.767334 2.767349
												CHANNELS 3 Xrotation Yrotation Zrotation
												End Site
												{
													OFFSET 0.101639 6.054260 1.275483
												}
											}
										}
									}
								}
								JOINT mixamorig:LeftHandIndex1
								{
									OFFSET 23.101074 -0.309540 4.992809
									CHANNELS 3 Xrotation Yrotation Zrotation
									JOINT mixamorig:LeftHandIndex2
									{
										OFFSET 6.226883 0.000000 0.000000
										CHANNELS 3 Xrotation Yrotation Zrotation
										JOINT mixamorig:LeftHandIndex3
										{
											OFFSET 6.094330 0.000000 0.000000
											CHANNELS 3 Xrotation Yrotation Zrotation
											JOINT mixamorig:LeftHandIndex4
											{
												OFFSET 5.482605 0.000000 0.000000
												CHANNELS 3 Xrotation Yrotation Zrotation
												End Site
												{
													OFFSET -1.427902 5.233032 0.797164
												}
											}
										}
									}
								}
								JOINT mixamorig:LeftHandRing1
								{
									OFFSET 22.299240 0.021149 -3.964172
									CHANNELS 3 Xrotation Yrotation Zrotation
									JOINT mixamorig:LeftHandRing2
									{
										OFFSET 6.321869 0.000000 0.000000
										CHANNELS 3 Xrotation Yrotation Zrotation
										JOINT mixamorig:LeftHandRing3
										{
											OFFSET 5.899796 0.000000 0.000000
											CHANNELS 3 Xrotation Yrotation Zrotation
											JOINT mixamorig:LeftHandRing4
											{
												OFFSET 6.517899 0.000000 0.000000
												CHANNELS 3 Xrotation Yrotation Zrotation
												End Site
												{
													OFFSET -1.637299 6.232208 0.980890
												}
											}
										}
									}
								}
								JOINT mixamorig:LeftHandPinky1
								{
									OFFSET 20.463791 -0.302338 -8.562233
									CHANNELS 3 Xrotation Yrotation Zrotation
									JOINT mixamorig:LeftHandPinky2
									{
										OFFSET 6.908646 0.000000 0.000000
										CHANNELS 3 Xrotation Yrotation Zrotation
										JOINT mixamorig:LeftHandPinky3
										{
											OFFSET 4.622849 0.000000 0.000000
											CHANNELS 3 Xrotation Yrotation Zrotation
											JOINT mixamorig:LeftHandPinky4
											{
												OFFSET 5.216080 0.000000 0.000000
												CHANNELS 3 Xrotation Yrotation Zrotation
												End Site
												{
													OFFSET -0.606308 5.116241 0.814926
												}
											}
										}
									}
								}
							}
						}
					}
				}
				JOINT mixamorig:RightShoulder
				{
					OFFSET -12.001300 18.284088 1.348900
					CHANNELS 3 Xrotation Yrotation Zrotation
					JOINT mixamorig:RightArm
					{
						OFFSET -25.308500 -0.751312 -5.164599
						CHANNELS 3 Xrotation Yrotation Zrotation
						JOINT mixamorig:RightForeArm
						{
							OFFSET -54.684429 0.000000 0.000000
							CHANNELS 3 Xrotation Yrotation Zrotation
							JOINT mixamorig:RightHand
							{
								OFFSET -55.150291 0.000000 0.000000
								CHANNELS 3 Xrotation Yrotation Zrotation
								JOINT mixamorig:RightHandMiddle1
								{
									OFFSET -23.317566 0.000000 0.000000
									CHANNELS 3 Xrotation Yrotation Zrotation
									JOINT mixamorig:RightHandMiddle2
									{
										OFFSET -6.378403 0.000000 0.000000
										CHANNELS 3 Xrotation Yrotation Zrotation
										JOINT mixamorig:RightHandMiddle3
										{
											OFFSET -6.148193 0.000000 0.000000
											CHANNELS 3 Xrotation Yrotation Zrotation
											JOINT mixamorig:RightHandMiddle4
											{
												OFFSET -6.583389 0.000000 0.000000
												CHANNELS 3 Xrotation Yrotation Zrotation
												End Site
												{
													OFFSET 1.171692 6.395905 1.029786
												}
											}
										}
									}
								}
								JOINT mixamorig:RightHandThumb1
								{
									OFFSET -7.190521 -3.860474 5.435846
									CHANNELS 3 Xrotation Yrotation Zrotation
									JOINT mixamorig:RightHandThumb2
									{
										OFFSET -6.567429 -3.791718 3.791708
										CHANNELS 3 Xrotation Yrotation Zrotation
										JOINT mixamorig:RightHandThumb3
										{
											OFFSET -6.062469 -3.500153 3.500166
											CHANNELS 3 Xrotation Yrotation Zrotation
											JOINT mixamorig:RightHandThumb4
											{
												OFFSET -4.792618 -2.767029 2.767022
												CHANNELS 3 Xrotation Yrotation Zrotation
												End Site
												{
													OFFSET -0.100327 6.053253 1.276754
												}
											}
										}
									}
								}
								JOINT mixamorig:RightHandIndex1
								{
									OFFSET -23.048981 -0.310791 4.992554
									CHANNELS 3 Xrotation Yrotation Zrotation
									JOINT mixamorig:RightHandIndex2
									{
										OFFSET -6.227539 0.000000 0.000000
										CHANNELS 3 Xrotation Yrotation Zrotation
										JOINT mixamorig:RightHandIndex3
										{
											OFFSET -6.095047 0.000000 0.000000
											CHANNELS 3 Xrotation Yrotation Zrotation
											JOINT mixamorig:RightHandIndex4
											{
												OFFSET -5.484772 0.000000 0.000000
												CHANNELS 3 Xrotation Yrotation Zrotation
												End Site
												{
													OFFSET 1.420593 5.237305 0.797056
												}
											}
										}
									}
								}
								JOINT mixamorig:RightHandRing1
								{
									OFFSET -22.246323 0.020569 -3.963762
									CHANNELS 3 Xrotation Yrotation Zrotation
									JOINT mixamorig:RightHandRing2
									{
										OFFSET -6.322128 0.000000 0.000000
										CHANNELS 3 Xrotation Yrotation Zrotation
										JOINT mixamorig:RightHandRing3
										{
											OFFSET -5.900024 0.000000 0.000000
											CHANNELS 3 Xrotation Yrotation Zrotation
											JOINT mixamorig:RightHandRing4
											{
												OFFSET -6.518356 0.000000 0.000000
												CHANNELS 3 Xrotation Yrotation Zrotation
												End Site
												{
													OFFSET 1.636398 6.232697 0.982186
												}
											}
										}
									}
								}
								JOINT mixamorig:RightHandPinky1
								{
									OFFSET -20.411011 -0.303314 -8.561701
									CHANNELS 3 Xrotation Yrotation Zrotation
									JOINT mixamorig:RightHandPinky2
									{
										OFFSET -6.907349 0.000000 0.000000
										CHANNELS 3 Xrotation Yrotation Zrotation
										JOINT mixamorig:RightHandPinky3
										{
											OFFSET -4.623840 0.000000 0.000000
											CHANNELS 3 Xrotation Yrotation Zrotation
											JOINT mixamorig:RightHandPinky4
											{
												OFFSET -5.218353 0.000000 0.000000
												CHANNELS 3 Xrotation Yrotation Zrotation
												End Site
												{
													OFFSET 0.602097 5.118835 0.816273
												}
											}
										}
									}
								}
							}
						}
					}
				}
			}
		}
	}
	JOINT mixamorig:LeftUpLeg
	{
		OFFSET 18.168400 -13.561905 -0.039000
		CHANNELS 3 Xrotation Yrotation Zrotation
		JOINT mixamorig:LeftLeg
		{
			OFFSET 0.577358 -80.825211 -3.695000
			CHANNELS 3 Xrotation Yrotation Zrotation
			JOINT mixamorig:LeftFoot
			{
				OFFSET -0.577356 -83.370262 -6.520700
				CHANNELS 3 Xrotation Yrotation Zrotation
				JOINT mixamorig:LeftToeBase
				{
					OFFSET 0.750401 -20.798306 25.135401
					CHANNELS 3 Xrotation Yrotation Zrotation
					JOINT mixamorig:LeftToe_End
					{
						OFFSET -0.000500 0.001200 19.917799
						CHANNELS 3 Xrotation Yrotation Zrotation
						End Site
						{
							OFFSET 0.000000 19.917805 0.000000
						}
					}
				}
			}
		}
	}
	JOINT mixamorig:RightUpLeg
	{
		OFFSET -18.162500 -13.585098 -0.041000
		CHANNELS 3 Xrotation Yrotation Zrotation
		JOINT mixamorig:RightLeg
		{
			OFFSET -0.595024 -80.945297 -3.631900
			CHANNELS 3 Xrotation Yrotation Zrotation
			JOINT mixamorig:RightFoot
			{
				OFFSET 0.595024 -83.218193 -6.561200
				CHANNELS 3 Xrotation Yrotation Zrotation
				JOINT mixamorig:RightToeBase
				{
					OFFSET -0.753601 -20.807106 25.115000
					CHANNELS 3 Xrotation Yrotation Zrotation
					JOINT mixamorig:RightToe_End
					{
						OFFSET 0.000299 0.001700 19.918200
						CHANNELS 3 Xrotation Yrotation Zrotation
						End Site
						{
							OFFSET 0.000000 19.918203 0.000000
						}
					}
				}
			}
		}
	}
}
MOTION
Frames: 5
Frame Time: 0.033333
0.380313 200.312592 -0.369556 -3.759195 -6.105967 -3.565308 3.303688 1.534731 2.479824 1.151890 0.339457 1.552798 1.126015 0.361543 1.555886 5.626309 -0.078963 0.454682 -7.563346 1.375724 -0.080566 0.000000 0.000000 -0.000000 0.000000 0.000000 -0.000000 0.000000 0.000000 -0.000000 1.049449 -17.442073 -12.319428 3.916258 -19.989271 -69.765246 -0.000013 -1.459362 0.000003 -33.230387 -1.364814 -6.186628 -0.076315 2.665775 -15.696835 0.268781 1.755803 -17.405514 0.300524 1.853978 -18.413345 -0.000001 -0.000001 0.000001 -0.663009 2.160316 4.832504 11.853522 25.421614 17.058315 -13.813933 3.537279 9.036004 0.000001 -0.000002 -0.000000 0.019862 -0.969580 -7.593518 0.267866 1.752891 -17.375721 0.057681 0.820953 -8.037993 -0.000001 0.000001 0.000001 0.136903 3.641780 -21.133524 0.386624 2.094791 -20.911895 0.283043 1.800628 -17.865010 -0.000001 -0.000001 0.000001 0.927719 5.555919 -27.128055 0.268793 1.755842 -17.405861 0.241906 1.667706 -16.505891 -0.000001 -0.000001 0.000000 1.203181 15.343653 14.705974 13.158868 27.555135 58.785157 -0.000001 6.693741 0.000005 -20.179096 -0.514103 6.782801 -0.136232 -2.205104 14.998861 0.214444 -1.398348 17.436882 0.239772 -1.476529 18.446266 0.000000 0.000001 0.000004 -1.665246 -0.174479 -4.219031 12.710952 -29.825332 -16.130938 -15.549409 -3.559398 -12.707131 0.000004 0.000002 0.000000 0.038553 1.262300 6.823740 0.213722 -1.396030 17.407000 0.046026 -0.653846 8.053228 0.000001 -0.000000 0.000001 0.030605 -3.075764 20.451016 0.308436 -1.668284 20.948516 0.225831 -1.434038 17.897095 0.000001 -0.000004 0.000003 0.748878 -4.885238 26.473771 0.214459 -1.398380 17.437246 0.193008 -1.328185 16.535823 -0.000002 0.000001 -0.000003 -13.008579 14.262722 10.836371 13.096624 2.098456 4.210348 2.619457 0.419523 -7.303450 -4.928523 0.000002 0.000001 -0.000000 -0.000000 -0.000000 -0.243650 -10.396279 3.111046 6.110059 -9.762782 -3.279712 -1.644939 -1.557817 2.850848 -7.282874 0.000014 0.000001 -0.000000 -0.000002 -0.000000 
-0.018232 200.070511 -1.808568 -2.960800 -2.244176 -3.032508 3.411743 1.764768 2.631677 1.248237 0.493895 1.555376 1.218940 0.517878 1.517467 5.507250 0.562131 0.121296 -7.915631 3.477883 -0.613159 0.000000 -0.000000 -0.000000 0.000000 -0.000000 -0.000000 0.000000 -0.000000 -0.000000 1.017911 -17.524490 -12.452871 3.137148 -19.746564 -69.173533 -0.000002 -2.821593 0.000002 -34.008475 -3.202053 -5.804033 -0.093209 2.617620 -15.835228 0.269179 1.757064 -17.418425 0.300956 1.855269 -18.426631 -0.000000 -0.000001 0.000001 -0.663007 2.160316 4.832504 11.669362 25.435109 17.088951 -13.814117 3.612252 9.046084 0.000003 0.000002 0.000002 0.002049 -0.973687 -7.718034 0.268456 1.754743 -17.394654 0.057956 0.822874 -8.056964 -0.000001 0.000000 -0.000004 0.138960 3.651090 -21.226396 0.387788 2.097831 -20.943732 0.284043 1.803730 -17.896786 -0.000000 -0.000001 0.000009 0.905326 5.522254 -27.192289 0.269357 1.757630 -17.424228 0.242437 1.669492 -16.524111 0.000000 0.000001 0.000001 1.252052 15.403456 14.465528 13.908357 27.566980 58.298656 0.000003 6.955391 0.000006 -20.541125 -0.617946 6.725937 -0.141708 -2.195592 15.121038 0.214428 -1.398261 17.435738 0.239738 -1.476451 18.445296 -0.000001 -0.000001 0.000001 -1.665242 -0.174479 -4.219030 12.688197 -29.719072 -16.152185 -15.546176 -3.574756 -12.706124 -0.000002 0.000000 0.000003 0.014826 1.290624 6.849887 0.213674 -1.395880 17.405233 0.046011 -0.653695 8.051408 -0.000003 0.000001 0.000003 0.027814 -3.071705 20.528108 0.307527 -1.665898 20.917161 0.225032 -1.431607 17.865729 -0.000001 0.000001 0.000003 0.699791 -4.819294 26.547567 0.218843 -1.412264 17.615908 0.197128 -1.341977 16.712708 -0.000003 0.000001 0.000002 -16.123333 14.960008 11.619402 14.950113 -1.863171 3.045543 2.431193 0.680908 -9.459293 -4.410394 -0.000004 -0.000000 0.000000 -0.000000 0.000000 -2.554971 -10.613480 2.872920 8.915908 -9.774727 -3.245578 -2.831070 -5.420092 2.761324 -7.344233 -0.000007 -0.000001 0.000000 -0.000000 -0.000000 
-0.724415 199.706635 -3.330329 -2.401057 1.979368 -2.709393 3.528640 1.949285 2.870650 1.346758 0.610260 1.672272 1.314928 0.627895 1.512197 5.684366 1.818325 -0.445793 -7.719655 6.791581 -1.450193 0.000000 -0.000000 -0.000000 0.000000 -0.000000 -0.000000 0.000000 -0.000000 -0.000000 0.980394 -17.651978 -12.610395 2.866208 -19.336614 -68.300990 0.000012 -4.825275 0.000003 -34.279248 -5.226217 -5.728816 -0.101922 2.591676 -15.890065 0.269532 1.758191 -17.429951 0.301336 1.856406 -18.438350 0.000001 0.000001 0.000004 -0.663008 2.160317 4.832504 11.746154 25.413080 17.068981 -13.815368 3.570246 9.048986 0.000003 -0.000001 -0.000001 0.011007 -0.948438 -7.771915 0.267968 1.753202 -17.378955 0.057731 0.821277 -8.041215 0.000000 0.000000 0.000003 0.150837 3.684948 -21.304782 0.388413 2.099463 -20.960807 0.284575 1.805380 -17.913763 0.000001 0.000000 0.000005 0.928624 5.557342 -27.235627 0.268806 1.755876 -17.406247 0.241918 1.667738 -16.506238 -0.000001 0.000000 0.000002 1.302813 15.436468 14.218069 14.861662 27.145573 57.628779 -0.000010 7.461958 -0.000002 -20.929107 -0.944583 6.464352 -0.130450 -2.237717 15.123345 0.214354 -1.398026 17.432752 0.239660 -1.476183 18.442021 0.000000 -0.000002 0.000000 -1.665239 -0.174479 -4.219030 12.740956 -29.890042 -16.070703 -15.549863 -3.557271 -12.707281 -0.000002 0.000001 0.000001 0.010522 1.282285 6.934879 0.213809 -1.396293 17.410494 0.046074 -0.654125 8.056680 0.000007 -0.000003 -0.000004 0.014216 -3.037758 20.580350 0.308600 -1.668699 20.954023 0.225961 -1.434477 17.902621 0.000002 0.000001 -0.000002 0.619045 -4.711736 26.676240 0.214625 -1.398897 17.444134 0.193056 -1.328351 16.537888 -0.000001 -0.000007 -0.000001 -20.498166 16.184174 13.018274 19.281477 -5.158016 1.774512 -0.163121 1.260342 -11.288579 -3.966214 0.000006 -0.000001 -0.000000 0.000002 -0.000000 -4.525606 -10.881491 2.915931 11.550485 -9.382077 -3.300945 -3.958750 -10.000194 2.581158 -7.411084 -0.000007 0.000000 -0.000000 0.000003 0.000000 
-1.788033 199.665833 -5.104170 -2.085145 6.162470 -2.349086 3.656637 2.117944 2.845557 1.451496 0.751499 1.878790 1.418490 0.753162 1.529122 6.156210 3.422171 -1.104006 -7.009920 10.782524 -2.469419 0.000000 0.000001 -0.000000 0.000000 0.000001 -0.000000 0.000000 0.000001 -0.000000 0.952897 -17.734045 -12.725791 3.036982 -18.706857 -67.233937 -0.000003 -7.193583 0.000030 -33.981591 -7.359069 -5.710084 -0.072167 2.721713 -16.186647 0.270005 1.759698 -17.445440 0.301817 1.857854 -18.453235 0.000002 -0.000000 -0.000002 -0.663007 2.160315 4.832504 12.252041 25.619712 17.005566 -13.818521 3.319749 9.041646 0.000001 0.000002 -0.000003 0.027427 -0.876927 -8.002878 0.267765 1.752552 -17.372306 0.057629 0.820602 -8.034568 -0.000001 -0.000001 0.000000 0.172394 3.747236 -21.484693 0.388876 2.100674 -20.973464 0.284967 1.806594 -17.926240 -0.000002 -0.000000 -0.000002 0.972822 5.623599 -27.340400 0.269077 1.756740 -17.415114 0.242180 1.668630 -16.515336 0.000000 0.000001 0.000004 1.340420 15.400355 14.036563 15.687795 26.250548 56.998629 0.000005 7.985089 0.000001 -21.392820 -1.556181 6.086733 -0.125727 -2.265562 15.242757 0.215099 -1.400420 17.463532 0.240456 -1.478563 18.472668 0.000002 0.000000 -0.000001 -1.665249 -0.174479 -4.219031 12.792976 -29.938416 -16.026824 -15.549786 -3.557585 -12.707257 -0.000002 0.000001 0.000003 0.010821 1.263353 7.045501 0.211699 -1.389558 17.323831 0.045085 -0.647143 7.970027 -0.000000 0.000000 0.000000 0.004036 -3.016901 20.710274 0.308742 -1.669103 20.959358 0.226097 -1.434897 17.907989 -0.000000 -0.000004 -0.000002 0.575058 -4.653721 26.755010 0.213386 -1.394959 17.393336 0.191843 -1.324265 16.485447 -0.000002 0.000000 -0.000002 -22.966414 18.561370 14.713302 21.002082 -5.351420 0.174621 -1.315159 1.178411 -12.653759 -3.681229 0.000011 -0.000004 -0.000000 0.000001 0.000000 -5.396807 -11.059720 3.157434 12.219236 -8.846505 -3.437830 -4.105645 -14.665009 2.162691 -7.476457 -0.000014 -0.000003 -0.000000 -0.000000 -0.000000 
-3.167700 199.972321 -7.001688 -1.980745 9.971530 -1.907002 3.775078 2.291216 2.473608 1.550723 0.947483 2.114272 1.518294 0.924045 1.520198 6.787517 5.145442 -1.740433 -5.644605 15.003817 -3.496552 0.000000 -0.000003 -0.000000 0.000000 -0.000003 -0.000000 0.000000 -0.000003 -0.000000 0.962503 -17.657171 -12.688273 3.533528 -17.673692 -66.219422 -0.000000 -9.687885 -0.000001 -33.085815 -9.822539 -5.011812 -0.004380 3.005489 -16.916792 0.272360 1.767170 -17.521937 0.304274 1.865186 -18.528775 0.000001 0.000000 0.000002 -0.663007 2.160318 4.832504 13.243667 26.167665 16.923264 -13.533648 2.569836 9.115293 -0.000001 0.000001 0.000004 0.085303 -0.659270 -8.675630 0.268955 1.756340 -17.411120 0.058194 0.824546 -8.073393 0.000000 -0.000000 -0.000001 0.234016 3.918662 -21.956572 0.389660 2.102727 -20.995001 0.285634 1.808634 -17.947174 0.000000 0.000000 -0.000000 1.119391 5.840253 -27.652209 0.269780 1.758992 -17.438147 0.242865 1.670947 -16.538938 0.000001 -0.000001 0.000001 1.362063 15.308440 13.933093 16.543162 25.353871 56.314138 -0.000009 8.531114 -0.000006 -21.950469 -2.432458 5.589789 -0.137437 -2.227291 15.298328 0.214711 -1.399201 17.447698 0.240051 -1.477358 18.457157 -0.000001 0.000001 0.000003 -1.665245 -0.174478 -4.219030 12.851581 -30.021571 -15.974506 -15.553603 -3.539411 -12.708436 -0.000003 0.000004 0.000001 0.001532 1.260082 7.141127 0.213685 -1.395883 17.405221 0.046005 -0.653700 8.051386 0.000001 -0.000000 0.000000 0.013109 -3.040897 20.708804 0.308748 -1.669074 20.958897 0.226083 -1.434848 17.907482 -0.000000 0.000003 0.000003 0.551577 -4.622440 26.769805 0.218568 -1.411396 17.604898 0.196752 -1.340688 16.696155 -0.000003 -0.000001 0.000001 -22.857319 22.101334 16.686082 19.984835 0.534813 -2.077735 -0.682754 0.231648 -11.232781 -3.793417 -0.000001 -0.000004 0.000000 0.000002 0.000000 -5.281130 -11.208811 3.474870 11.091601 -8.121760 -3.551046 -3.395440 -19.042224 1.513044 -7.522620 -0.000003 -0.000001 -0.000000 -0.000000 0.000000 
